<svg version="1.1" xmlns="http://www.w3.org/2000/svg" xmlns:xlink="http://www.w3.org/1999/xlink" width="22.52672" height="22.78627" viewBox="0,0,22.52672,22.78627"><g transform="translate(-310.09828,-168.99045)"><g data-paper-data="{&quot;isPaintingLayer&quot;:true}" fill="#ffffff" fill-rule="nonzero" stroke="none" stroke-width="0.5" stroke-linecap="butt" stroke-linejoin="miter" stroke-miterlimit="10" stroke-dasharray="" stroke-dashoffset="0" style="mix-blend-mode: normal"><path d="M332.625,181c0,1.25 -1.25,1.25 -1.25,1.25h-1c-2.44293,0 -4.86839,-0.15249 -7.30178,-0.28904c0.209,2.76393 0.30178,5.53415 0.30178,8.28904l-0.61612,1.13388c0,0 -0.88388,0.88388 -1.76777,0c-0.67064,-0.67064 -0.3236,-1.34127 -0.11711,-1.62583c-0.01065,-2.6339 -0.10755,-5.28294 -0.31483,-7.92545c-1.14023,-0.04935 -2.28409,-0.0826 -3.43418,-0.0826c-1.70966,0 -3.67276,-0.4811 -4.86612,0.88388c0,0 -0.88388,0.88388 -1.76777,0c-0.88388,-0.88388 0,-1.76777 0,-1.76777c2.0075,-1.86358 4.03981,-1.61612 6.63388,-1.61612c1.07198,0 2.13907,0.02891 3.20308,0.07283c-0.31413,-2.96102 -0.77717,-5.90515 -1.42331,-8.80167c0,0 -0.27116,-1.22023 0.94907,-1.4914c1.22023,-0.27116 1.4914,0.94907 1.4914,0.94907c0.69019,3.11717 1.17986,6.28482 1.50509,9.46963c2.50953,0.13957 5.00979,0.30154 7.52468,0.30154h1c0,0 1.25,0 1.25,1.25z"/></g></g></svg>