<svg version="1.1" xmlns="http://www.w3.org/2000/svg" xmlns:xlink="http://www.w3.org/1999/xlink" width="148" height="42" viewBox="0,0,148,42"><g transform="translate(-106,-299)"><g data-paper-data="{&quot;isPaintingLayer&quot;:true}" fill-rule="nonzero" stroke-linecap="butt" stroke-linejoin="miter" stroke-miterlimit="10" stroke-dasharray="" stroke-dashoffset="0" style="mix-blend-mode: normal"><path d="M106,341v-42h148v42z" fill="#30a437" stroke="#ffffff" stroke-width="0"/><path d="M147.55055,308.10525c0.88388,0.88388 0,1.76777 0,1.76777l-0.14535,0.09257c-0.32537,0.54169 -0.65074,1.08337 -0.97611,1.62506c-2.48067,4.96928 -5.58235,10.22823 -6.18517,15.85499c-0.15123,1.4116 0.51128,4.08076 -2.35617,4.12178c-1.60806,0.023 -1.71137,-2.66321 -2.13284,-3.58944c-1.21703,-2.67454 -2.90011,-5.14294 -3.63424,-8.01901c0,0 -0.30317,-1.21268 0.90951,-1.51585c1.21268,-0.30317 1.51585,0.90951 1.51585,0.90951c0.63012,2.58665 2.18613,4.86833 3.32624,7.2547c0.19451,-1.33889 0.53572,-2.75746 0.58629,-2.93903c1.30103,-4.67107 3.62052,-8.97011 5.77903,-13.28068c0.3413,-0.56942 0.68259,-1.13885 1.02389,-1.70827l0.52132,-0.5741c0,0 0.88388,-0.88388 1.76777,0z" fill="#f2f2f2" stroke="none" stroke-width="0.5"/><text transform="translate(162.66667,327.6558) scale(0.5,0.5)" font-size="40" xml:space="preserve" fill="#f2f2f2" fill-rule="nonzero" stroke="none" stroke-width="1" stroke-linecap="butt" stroke-linejoin="miter" stroke-miterlimit="10" stroke-dasharray="" stroke-dashoffset="0" font-family="Sans Serif" font-weight="normal" text-anchor="start" style="mix-blend-mode: normal"><tspan x="0" dy="0">Copied</tspan></text></g></g></svg>