<svg version="1.1" xmlns="http://www.w3.org/2000/svg" xmlns:xlink="http://www.w3.org/1999/xlink" width="570" height="129" viewBox="0,0,570,129"><g transform="translate(105,-255.5)"><g data-paper-data="{&quot;isPaintingLayer&quot;:true}" fill-rule="nonzero" stroke-linecap="butt" stroke-linejoin="miter" stroke-miterlimit="10" stroke-dasharray="" stroke-dashoffset="0" style="mix-blend-mode: normal"><path d="M-83.0508,356.08929v-72.17857h526.1016v72.17857z" fill-opacity="0.51765" fill="#000000" stroke="#ffffff" stroke-width="2"/><text transform="translate(77.30169,331.68097) scale(0.75275,0.75275)" font-size="40" xml:space="preserve" fill="#ffffff" fill-rule="nonzero" stroke="none" stroke-width="1" stroke-linecap="butt" stroke-linejoin="miter" stroke-miterlimit="10" stroke-dasharray="" stroke-dashoffset="0" font-family="Sans Serif" font-weight="normal" text-anchor="start" style="mix-blend-mode: normal"><tspan x="0" dy="0">Spotify Ad-block script</tspan></text><path d="M-105,384.5v-129h570v129z" fill="none" stroke="none" stroke-width="0"/><path d="M12.31548,357.9147v-75.82937h335.36904v75.82937z" fill="none" stroke="none" stroke-width="0"/><g><path d="M-16.4261,319.08805c0,-11.92275 9.6653,-21.58805 21.58805,-21.58805c11.92275,0 21.58805,9.6653 21.58805,21.58805c0,11.92275 -9.6653,21.58805 -21.58805,21.58805c-11.92275,0 -21.58805,-9.6653 -21.58805,-21.58805z" fill="#5dff46" stroke="#ffffff" stroke-width="0"/><path d="M11.29524,335.34562c-1.72715,1.15143 -2.87858,-0.57572 -2.87858,-0.57572l-0.34863,-0.73628c-3.7634,-2.88142 -8.36964,-2.07577 -12.8698,-2.07577c0,0 -2.07577,0 -2.07577,-2.07577c0,-2.07577 2.07577,-2.07577 2.07577,-2.07577c5.57855,0 10.63524,-0.582 15.36073,2.90608l1.31199,1.75465c0,0 1.15143,1.72715 -0.57572,2.87858z" fill="#000000" stroke="none" stroke-width="0.5"/><path d="M14.71051,326.56084c-1.24546,1.66062 -2.90608,0.41515 -2.90608,0.41515l-1.57341,-1.18351c-1.45655,-0.87393 -3.31229,-2.6934 -5.04646,-3.0055c-3.38637,-0.60944 -8.30429,-0.27627 -11.65501,0.4123c0,0 -2.03546,0.40709 -2.44256,-1.62837c-0.40709,-2.03546 1.62837,-2.44256 1.62837,-2.44256c3.76704,-0.73637 9.44993,-1.2251 13.25428,-0.41801c2.50326,0.53107 4.44654,2.35818 6.57788,3.63698l1.74783,1.30742c0,0 1.66062,1.24546 0.41515,2.90608z" fill="#000000" stroke="none" stroke-width="0.5"/><path d="M16.87458,322.76247c-2.0138,0.50345 -2.51725,-1.51035 -2.51725,-1.51035l-0.43682,-1.75698c-0.29513,-2.11437 -1.26456,-2.46862 -2.9464,-3.72833c-4.81346,-3.60534 -10.53414,-5.06176 -16.25043,-2.6394c0,0 -1.92731,0.77092 -2.69823,-1.15638c-0.77092,-1.92731 1.15638,-2.69823 1.15638,-2.69823c7.16894,-2.74974 14.20148,-1.39384 20.2832,3.17277c2.56278,1.92433 3.78442,3.06863 4.52639,6.23538l0.39349,1.56426c0,0 0.50345,2.0138 -1.51035,2.51725z" fill="#000000" stroke="none" stroke-width="0.5"/><path d="M23.20962,337.86802c-0.92831,1.85663 -2.78494,0.92831 -2.78494,0.92831l-1.56261,-1.02632c-2.21805,-2.97415 -4.91218,-5.59841 -7.19889,-8.51751c-0.73255,-0.93514 -3.77499,-5.64924 -4.6811,-6.65499c-3.14123,-3.48666 -7.12683,-6.60547 -10.78352,-9.53123c-4.05682,-3.24592 -7.15107,-6.81837 -12.10803,-8.64082c0,0 -1.94361,-0.72885 -1.21475,-2.67246c0.72885,-1.94361 2.67246,-1.21475 2.67246,-1.21475c5.41077,2.06284 8.79974,5.7315 13.23781,9.28145c3.79698,3.03716 7.93565,6.28395 11.19829,9.91043c2.0808,2.31284 3.00958,4.49149 4.90171,6.9054c2.32195,2.96226 5.0298,5.635 7.29727,8.64355l0.098,-0.19601c0,0 1.85663,0.92831 0.92831,2.78494z" fill="#ff3838" stroke="none" stroke-width="0.5"/></g></g></g></svg>