<svg version="1.1" xmlns="http://www.w3.org/2000/svg" xmlns:xlink="http://www.w3.org/1999/xlink" width="570" height="129" viewBox="0,0,570,129"><g transform="translate(105,-255.5)"><g data-paper-data="{&quot;isPaintingLayer&quot;:true}" fill-rule="nonzero" stroke-linecap="butt" stroke-linejoin="miter" stroke-miterlimit="10" stroke-dasharray="" stroke-dashoffset="0" style="mix-blend-mode: normal"><path d="M-83.0508,356.08929v-72.17857h526.1016v72.17857z" fill-opacity="0.51765" fill="#000000" stroke="#ffffff" stroke-width="2"/><text transform="translate(9.03927,329.54054) scale(0.70647,0.70647)" font-size="40" xml:space="preserve" fill="#ffffff" fill-rule="nonzero" stroke="none" stroke-width="1" stroke-linecap="butt" stroke-linejoin="miter" stroke-miterlimit="10" stroke-dasharray="" stroke-dashoffset="0" font-family="Sans Serif" font-weight="normal" text-anchor="start" style="mix-blend-mode: normal"><tspan x="0" dy="0">I Love Layla Word Puzzle Game</tspan></text><path d="M-105,384.5v-129h570v129z" fill="none" stroke="none" stroke-width="0"/><path d="M12.31548,357.9147v-75.82937h335.36904v75.82937z" fill="none" stroke="none" stroke-width="0"/><path d="M-43.92428,312.66824c0,2.06831 -2.06831,2.06831 -2.06831,2.06831l-1.54149,-0.14794c-0.58697,-0.23919 -1.18766,-0.45168 -1.7977,-0.6455c-0.35032,0.29474 -0.85896,0.49089 -1.5934,0.38597c-1.01613,-0.14517 -1.45595,-0.72256 -1.6412,-1.26744c-1.48734,-0.36193 -2.98475,-0.69715 -4.43463,-1.11141c0,0 -1.98873,-0.56821 -1.42052,-2.55696c0.56821,-1.98873 2.55696,-1.42052 2.55696,-1.42052c1.21978,0.34851 2.45948,0.64937 3.69799,0.95379c0.46252,-2.47527 1.00781,-4.93332 1.42712,-7.42525c0.16884,-1.00341 1.02043,-4.38209 0.73729,-5.39017c-0.87827,0.01344 -1.61846,-0.08356 -2.37853,-0.31004c-0.01364,0.00045 -0.02718,0.00079 -0.04068,0.00104l-0.05045,0.35322l-2.67663,-0.38237c-1.01841,-0.12894 -1.80591,-0.99842 -1.80591,-2.05183c0,-1.14231 0.92603,-2.06831 2.06831,-2.06831h2.32006v0.07876l0.1706,-0.07174c0.46195,0.07783 1.05241,0.15363 1.68397,0.25916c0.837,-0.13887 1.86534,-0.00798 3.21886,-0.23806l1.88673,-0.02813c0,0 2.06831,0 2.06831,2.06831c0,2.06831 -2.06831,2.06831 -2.06831,2.06831l-0.60556,-0.01412c-0.01911,0.48094 -0.05959,0.96784 -0.03285,1.42587c0.25036,4.28825 -1.03738,8.57677 -1.89083,12.80365c0.7226,0.22282 1.43655,0.46687 2.13737,0.74298l0.00519,-0.14794c0,0 2.06831,0 2.06831,2.06831z" fill="#ffffff" stroke="#fe6dff" stroke-width="1.5"/><path d="M-16.6053,321.31004c-0.7064,0 -1.17151,-0.24125 -1.4778,-0.55896c-3.38763,-0.34726 -10.00861,-0.58518 -11.90885,-2.30986c-0.00478,0.13533 -0.02153,0.27942 -0.0522,0.43278c-0.40563,2.02815 -2.4338,1.62252 -2.4338,1.62252l-1.86778,-0.37466c-3.02534,-0.50481 -7.39317,-0.04502 -8.92981,-3.59865c-0.24067,-0.55658 0.50077,-5.54672 0.65406,-6.50201c0.85286,-5.31559 1.66309,-10.63395 2.72088,-15.93232c0,0 0.40563,-2.02815 2.43379,-1.62252c2.02815,0.40563 1.62252,2.43379 1.62252,2.43379c-0.61456,3.06707 -0.62251,6.1336 -1.13816,9.14911c-0.48305,2.82489 -2.88201,8.00748 -2.44706,10.95082c0.10768,0.72872 5.10639,0.93199 5.76386,1.04144l1.99897,0.39869c0,0 0.68702,0.13742 1.18138,0.65214c-0.22362,-1.68086 -0.22282,-4.57091 -0.17126,-5.32598c0.353,-5.16879 2.77149,-10.21888 2.70272,-15.33848c0,0 0,-2.06831 2.06831,-2.06831c2.06831,0 2.06831,2.06831 2.06831,2.06831c-0.05313,5.27557 -2.36775,10.30349 -2.71072,15.59551c-0.07749,1.19561 -1.26585,2.65163 -0.48615,3.56134c0.8168,0.95302 2.52434,-0.12464 3.7649,0.06627c2.3318,0.35882 4.65673,0.77598 6.9839,1.16384l1.72828,2.42686c0,0 0,2.06831 -2.06831,2.06831z" fill="#ffffff" stroke="#fe6dff" stroke-width="1.5"/><path d="M-37.4853,325.22915c2.06831,0 2.06831,2.06831 2.06831,2.06831l-0.10615,1.81409c-0.80105,2.40152 -1.27272,4.75766 -1.88823,7.19134c-0.22013,0.87036 -0.51063,1.72429 -0.84738,2.55652c-0.45866,1.13355 -0.6241,2.51614 -1.53512,3.33181c-5.89901,5.28162 -7.15276,-3.354 -7.4203,-9.05461c-0.62163,1.31311 -1.30792,2.58636 -2.08898,3.81388l0.46669,0.26666l-1.52678,2.67187c-0.35114,0.64178 -1.0326,1.077 -1.81572,1.077c-0.9304,0 -1.71733,-0.61433 -1.97726,-1.45951l-0.75826,-2.2748l0.06129,-0.02042l-0.11619,-0.17611c-0.55502,-4.37751 0.37203,-9.15678 -1.4307,-13.1764c0,0 -0.81476,-1.90109 1.08632,-2.71585c1.90108,-0.81476 2.71585,1.08634 2.71585,1.08634c1.18648,2.86748 1.30302,5.71322 1.37437,8.63371c1.04681,-2.63987 2.61271,-5.33819 3.28926,-7.37035l0.04522,-0.04735l-0.02348,-0.00939l0.75545,-1.88864c0.29329,-0.78552 1.05048,-1.34489 1.93828,-1.34489c1.14231,0 2.06831,0.92603 2.06831,2.06831v2.32006h-0.46308c0.61503,3.3469 0.58725,6.64691 0.84577,10.31169c0.02677,0.37949 0.28309,1.70475 0.41269,2.91313c0.39309,-1.1693 0.89908,-2.3881 0.92911,-2.50981c0.62609,-2.53774 1.14595,-5.00299 1.97853,-7.50231l-0.10615,-0.50596c0,0 0,-2.06831 2.06831,-2.06831z" fill="#ffffff" stroke="#fe6dff" stroke-width="1.5"/><path d="M-61.0741,322.99263c0.97959,-1.73814 -1.27481,-2.12398 -2.67112,-2.1482c0.03352,0.1979 0.03352,0.33037 0.03352,0.33037c0,1.2414 -0.04318,2.46696 -0.11895,3.68315c0.90672,-0.65767 2.21199,-0.8991 2.75655,-1.86532zM-67.04684,319.19478c-0.34003,-2.04018 1.70015,-2.38021 1.70015,-2.38021c4.41162,-0.61657 10.1109,2.10031 8.00773,7.95587c-0.57294,1.59514 -2.69626,2.0723 -3.88512,3.28033l-2.97797,0.9484c-0.29821,2.63155 -0.69423,5.25392 -1.07712,7.93515l0.02078,1.2542c0,0 0,2.06831 -2.06831,2.06831c-2.06831,0 -2.06831,-2.06831 -2.06831,-2.06831l0.02078,-1.8392c0.73092,-5.11466 1.52592,-9.99868 1.52592,-15.1745c0,0 0,-1.1467 0.85381,-1.73245c-0.02031,-0.07836 -0.03785,-0.16081 -0.05231,-0.24757z" fill="#ffffff" stroke="#fe6dff" stroke-width="1.5"/><path d="M-28.47245,336.7569c-0.50163,-2.00657 1.50491,-2.5082 1.50491,-2.5082l2.04834,-0.44842c5.49889,0.01317 7.4366,-0.53708 9.40507,5.34458c-0.23729,1.47538 -0.00233,3.111 -0.71188,4.42613c-2.82296,5.2323 -10.57428,2.74146 -14.32859,0.68416c-2.23467,-1.22456 -5.65744,-3.4819 -5.32149,-6.59645c0.20317,-1.88345 2.41199,-4.16905 3.32623,-5.84643c3.50828,-6.43671 9.02369,-10.03617 15.27996,-3.9797c0,0 1.46252,1.46252 0,2.92505c-1.46252,1.46252 -2.92505,0 -2.92505,0c-5.08423,-5.33262 -9.9798,2.47153 -11.55445,7.1876c-0.2842,0.85117 2.86573,2.51043 3.18536,2.68373c2.76809,1.50092 8.76533,3.73636 8.93337,-1.07648c-1.01306,-3.06682 -2.266,-1.62193 -5.28858,-1.61556l-1.04507,0.32491c0,0 -2.00657,0.50164 -2.50821,-1.50493z" fill="#ffffff" stroke="#fe6dff" stroke-width="1.5"/><path d="M-18.3409,304.62905c-2.30671,-1.17111 -3.33736,-4.27198 -2.13873,-6.9824c0.5403,-1.22177 1.20701,-2.66623 2.44066,-3.17884c0.94722,-0.39359 2.056,0.1632 3.01125,0.64427c0.07475,-1.04275 0.70293,-2.47482 1.37896,-3.00214c1.39145,-1.08537 6.09935,-1.21538 7.3995,0.14871c2.11224,2.21614 0.86295,4.40775 0.07119,6.4841c-1.42945,3.74861 -2.63407,7.36661 -4.58798,10.69309l0.33455,0.13382l-0.75545,1.88864c-0.29332,0.78552 -1.05046,1.34489 -1.93828,1.34489c-0.88781,0 -1.64496,-0.55937 -1.93828,-1.34489l-0.75545,-1.88864c-0.78153,-1.95385 -1.28682,-3.33469 -2.52194,-4.94062z" fill="#ffffff" stroke="#fe6dff" stroke-width="1.5"/></g></g></svg>